<?xml version="1.0" standalone="no"?>
<!DOCTYPE svg PUBLIC "-//W3C//DTD SVG 20010904//EN"
 "http://www.w3.org/TR/2001/REC-SVG-20010904/DTD/svg10.dtd">
<svg version="1.0" xmlns="http://www.w3.org/2000/svg"
 width="40px" height="40px" viewBox="0 0 230.000000 108.000000"
 preserveAspectRatio="xMidYMid meet">

    <g transform="translate(10.000000,108.000000) scale(0.09000,-0.090000)"
fill="#000000" stroke="none">
<path d="M461 1031 c-70 -164 -67 -339 10 -589 44 -141 55 -228 40 -296 -13
-61 -20 -66 -38 -36 -7 10 -22 24 -35 31 l-21 12 21 -28 c12 -15 22 -36 22
-47 0 -20 -6 -20 -105 8 -66 17 -160 79 -209 135 -21 24 -54 77 -74 117 -30
63 -36 86 -40 167 -8 152 28 252 132 363 54 59 56 63 19 34 -184 -144 -238
-436 -117 -639 179 -298 577 -351 818 -110 106 107 156 229 157 383 1 256
-169 469 -422 529 -35 8 -80 15 -100 15 -34 0 -38 -3 -58 -49z m235 -115 c67
-31 162 -119 197 -184 71 -131 76 -275 14 -406 -42 -88 -114 -166 -193 -208
-49 -26 -173 -62 -183 -53 -2 3 4 15 15 26 19 22 19 22 -2 11 l-21 -11 18 52
c24 68 23 145 -1 292 -39 234 -35 361 14 479 15 37 18 38 51 33 20 -3 60 -17
91 -31z"/>
<path d="M1210 816 c0 -8 10 -16 23 -18 20 -3 22 -9 25 -65 4 -83 22 -81 22 2
0 63 1 65 25 65 16 0 25 6 25 15 0 12 -13 15 -60 15 -45 0 -60 -3 -60 -14z"/>
<path d="M1360 802 c-37 -37 -39 -74 -5 -107 50 -51 135 -18 135 52 0 40 -27
71 -67 79 -27 5 -37 1 -63 -24z m81 -12 c22 -12 26 -59 7 -78 -15 -15 -61 -15
-76 0 -17 17 -15 48 5 70 18 20 36 23 64 8z"/>
<path d="M1520 751 c0 -47 4 -81 10 -81 6 0 10 13 10 29 0 43 14 45 41 6 13
-19 30 -35 37 -35 17 0 15 7 -9 42 -16 22 -19 32 -10 41 28 28 6 63 -47 73
l-32 7 0 -82z m60 29 c0 -13 -7 -20 -20 -20 -13 0 -20 7 -20 20 0 13 7 20 20
20 13 0 20 -7 20 -20z"/>
<path d="M1654 816 c-3 -7 -4 -42 -2 -76 4 -81 26 -94 30 -18 l3 53 40 -52
c55 -74 65 -70 65 27 0 91 -17 109 -22 23 l-3 -57 -44 57 c-45 59 -58 67 -67
43z"/>
<path d="M1873 818 c-9 -11 -63 -135 -63 -145 0 -10 29 0 34 12 3 9 18 15 40
15 21 0 36 -6 40 -15 3 -8 12 -15 20 -15 12 0 8 15 -15 72 -34 84 -42 94 -56
76z m27 -75 c0 -7 -9 -13 -20 -13 -17 0 -18 3 -8 25 8 19 14 22 20 13 4 -7 8
-19 8 -25z"/>
<path d="M1980 751 l0 -81 40 0 c30 0 47 7 65 25 50 49 16 119 -62 131 l-43 7
0 -82z m82 32 c37 -33 17 -83 -34 -83 -27 0 -28 2 -28 50 0 45 2 50 22 50 12
0 30 -7 40 -17z"/>
<path d="M2175 818 c-51 -27 -60 -84 -20 -123 48 -49 135 -15 135 52 -1 32
-15 55 -47 71 -27 15 -42 15 -68 0z m69 -34 c19 -18 21 -55 4 -72 -15 -15 -61
-15 -76 0 -28 28 -2 88 38 88 10 0 26 -7 34 -16z"/>
<path d="M1227 523 c-4 -3 -7 -84 -7 -180 0 -147 2 -173 15 -173 12 0 15 16
15 80 l0 80 90 0 c53 0 90 4 90 10 0 6 -37 10 -90 10 l-90 0 0 75 0 75 100 0
c82 0 100 3 100 15 0 12 -19 15 -108 15 -60 0 -112 -3 -115 -7z"/>
<path d="M1500 515 c0 -3 24 -38 53 -78 29 -39 56 -77 60 -84 4 -6 -10 -33
-31 -60 -84 -106 -94 -123 -81 -123 8 0 40 34 72 75 32 41 61 75 65 74 4 0 31
-34 60 -75 29 -40 60 -74 69 -74 16 0 9 11 -79 123 -21 27 -35 54 -31 60 4 7
31 45 61 85 29 41 51 76 48 79 -9 9 -30 -13 -77 -81 -24 -36 -47 -66 -51 -66
-4 0 -31 34 -60 75 -29 41 -59 75 -65 75 -7 0 -13 -2 -13 -5z"/>
</g>

<g transform="translate(10.000000,108.000000) scale(0.09000,-0.090000)"
   fill="#FF4B1A">
<path d="M1227 523 c-4 -3 -7 -84 -7 -180 0 -147 2 -173 15 -173 12 0 15 16
15 80 l0 80 90 0 c53 0 90 4 90 10 0 6 -37 10 -90 10 l-90 0 0 75 0 75 100 0
c82 0 100 3 100 15 0 12 -19 15 -108 15 -60 0 -112 -3 -115 -7z"/>
<path d="M1500 515 c0 -3 24 -38 53 -78 29 -39 56 -77 60 -84 4 -6 -10 -33
-31 -60 -84 -106 -94 -123 -81 -123 8 0 40 34 72 75 32 41 61 75 65 74 4 0 31
-34 60 -75 29 -40 60 -74 69 -74 16 0 9 11 -79 123 -21 27 -35 54 -31 60 4 7
31 45 61 85 29 41 51 76 48 79 -9 9 -30 -13 -77 -81 -24 -36 -47 -66 -51 -66
-4 0 -31 34 -60 75 -29 41 -59 75 -65 75 -7 0 -13 -2 -13 -5z"/>
</g>
</svg>
